<?xml version="1.0" encoding="UTF-8"?>
<svg version="1.1" xmlns="http://www.w3.org/2000/svg" width="187" height="168">
<path d="M0 0 C61.71 0 123.42 0 187 0 C187 55.44 187 110.88 187 168 C125.29 168 63.58 168 0 168 C0 112.56 0 57.12 0 0 Z " fill="#FCFCFC" transform="translate(0,0)"/>
<path d="M0 0 C2.02050781 1.65820312 2.02050781 1.65820312 3.953125 3.78125 C4.654375 4.54050781 5.355625 5.29976563 6.078125 6.08203125 C6.79484375 6.87996094 7.5115625 7.67789063 8.25 8.5 C8.9821875 9.29792969 9.714375 10.09585938 10.46875 10.91796875 C11.81650822 12.38802355 13.15975143 13.86223899 14.49707031 15.34179688 C15.31439171 16.24355888 16.139422 17.139422 17 18 C17.23529412 23.52941176 17.23529412 23.52941176 16 26 C12.7 25.67 9.4 25.34 6 25 C6.7280957 36.44150384 8.4737274 48.4737274 17 57 C20.02941524 57.83254433 23.07969412 58.46773569 26.15234375 59.12109375 C29.01134758 60.00350234 30.29488646 60.56930623 32 63 C31.6875 65.6875 31.6875 65.6875 31 68 C30.34 68 29.68 68 29 68 C32.41838915 71.94974498 36.25686621 73.89643268 40.875 76.125 C41.56980469 76.47175781 42.26460938 76.81851563 42.98046875 77.17578125 C56.14826511 83.64808794 71.6192559 84.17769437 85.8125 80.3125 C87.89373965 79.59379854 89.95941912 78.82711545 92 78 C92.88429688 77.649375 93.76859375 77.29875 94.6796875 76.9375 C103.25171731 73.09210345 110.46937302 66.90462864 116.6875 59.9375 C119.14458397 57.38568508 120.68556725 56.52378757 124.25 56.375 C128 57 128 57 130 58 C131.75510064 61.51020128 132.0276937 64.28684478 131 68 C121.3370853 84.08117423 102.9425333 93.67653491 85.3203125 98.2890625 C80.54245434 99.31208625 75.87786263 99.82442748 71 100 C69.93458984 100.05994141 69.93458984 100.05994141 68.84765625 100.12109375 C51.7802908 100.66140141 36.54955592 96.27805584 23.171875 85.63671875 C21.00908762 83.82613633 21.00908762 83.82613633 18 83 C17.34 84.32 16.68 85.64 16 87 C13.75 87.3125 13.75 87.3125 11 87 C7.35282298 83.26700705 5.75662794 79.16610582 4.125 74.3125 C2.40763434 69.45562688 0.63441047 65.008003 -2.125 60.625 C-9.17678258 49.41211334 -10.44847042 37.95205455 -12 25 C-13.98 25 -15.96 25 -18 25 C-18.33 25.99 -18.66 26.98 -19 28 C-20.32 27.67 -21.64 27.34 -23 27 C-23.88671875 23.9765625 -23.88671875 23.9765625 -24 20 C-22.35266847 17.07457936 -20.13169433 14.78480699 -17.8125 12.375 C-16.63095134 11.09166034 -15.44994961 9.80781689 -14.26953125 8.5234375 C-13.70443848 7.92241211 -13.1393457 7.32138672 -12.55712891 6.70214844 C-11.20625971 5.22546922 -9.94352195 3.66908878 -8.69921875 2.1015625 C-5.86953011 -1.39814437 -4.1675422 -1.26966463 0 0 Z " fill="#4FCCD1" transform="translate(26,64)"/>
<path d="M0 0 C1.3775647 0.00737183 1.3775647 0.00737183 2.78295898 0.01489258 C18.18102825 0.27788842 31.7149665 4.70942833 44.65625 13.078125 C46.77093238 14.28870404 48.40647611 14.97093502 50.8125 15.3125 C51.616875 14.9825 52.42125 14.6525 53.25 14.3125 C56.28260679 13.12904369 57.71271876 13.56731052 60.8125 14.3125 C61.05484375 15.24191406 61.2971875 16.17132813 61.546875 17.12890625 C63.31148124 23.63758848 65.02233772 29.64474964 68.8125 35.3125 C75.84984167 46.36098367 81.8125 56.7863824 81.8125 70.3125 C82.369375 69.796875 82.92625 69.28125 83.5 68.75 C85.8125 67.3125 85.8125 67.3125 88.4375 67.5 C90.8125 68.3125 90.8125 68.3125 92.8125 70.3125 C93.27011913 73.928194 93.14285421 75.76737456 91.23828125 78.91015625 C89.11116365 81.39113815 86.9737478 83.86117924 84.8125 86.3125 C83.69875 87.8284375 83.69875 87.8284375 82.5625 89.375 C78.83661869 92.00005274 75.93866202 93.04047861 71.375 93.30859375 C66.03482277 91.81545209 62.86707615 88.55030077 59 84.6875 C57.91368286 83.60239136 57.91368286 83.60239136 56.80541992 82.49536133 C53.01056118 78.42335774 53.01056118 78.42335774 51.8125 76.3125 C52.22471833 71.90028167 52.22471833 71.90028167 53.8125 70.3125 C55.67022162 70.40234301 57.52497985 70.55861861 59.375 70.75 C60.38691406 70.85183594 61.39882812 70.95367187 62.44140625 71.05859375 C63.61509766 71.18427734 63.61509766 71.18427734 64.8125 71.3125 C63.15429721 61.34873765 60.95082324 50.18251313 52.8125 43.3125 C47.87535842 41.49885615 43.18594574 40.9770296 37.94921875 40.65625 C35.8125 40.3125 35.8125 40.3125 33.8125 38.3125 C33.4375 35.375 33.4375 35.375 33.8125 32.3125 C35.8359375 30.62109375 35.8359375 30.62109375 37.8125 29.3125 C22.67763186 18.19066508 7.26516319 15.58985934 -11.0546875 17.7734375 C-23.89457124 20.20415046 -34.62610091 26.09984468 -44.05078125 35.08984375 C-47.17506859 38.03401696 -48.5555678 39.21771017 -52.9375 39.875 C-56.1875 39.3125 -56.1875 39.3125 -58.125 38.25 C-59.37531405 35.97001555 -59.96857073 34.02186228 -59.86328125 31.40625 C-58.26197905 26.44498999 -53.84149165 22.85487455 -50.1875 19.3125 C-49.29417969 18.44044922 -49.29417969 18.44044922 -48.3828125 17.55078125 C-35.33195829 5.65514619 -17.45388741 -0.11135629 0 0 Z " fill="#54CBD1" transform="translate(90.1875,5.6875)"/>
<path d="M0 0 C1.9140625 0.5859375 1.9140625 0.5859375 4 2 C4.8359375 4.9140625 4.8359375 4.9140625 5.375 8.625 C7.28167684 19.98619268 11.47607655 30.30588814 16.83203125 40.48046875 C19.23798316 45.67056568 22 52.214228 22 58 C24.2477975 55.94766315 25.0022242 54.99332739 26 52 C29.11774226 53.43247617 31.91807482 55.22387842 34.77075195 57.12280273 C53.25065515 69.39321673 72.46440142 73.27634915 94.609375 69.3125 C110.81923791 65.27684948 124.97785718 56.49349956 135 43 C135 42.34 135 41.68 135 41 C130.28081003 41.45024074 128.50054684 43.16494648 125.375 46.625 C112.37055817 60.03045986 95.36993011 65.92466371 76.9375 66.3125 C62.32872644 66.15323686 47.12609355 61.20880543 36.05859375 51.390625 C35.37925781 50.60171875 34.69992188 49.8128125 34 49 C34.1875 46.6875 34.1875 46.6875 35 45 C39 45 39 45 40.7578125 46.7421875 C41.49773438 47.48726562 42.23765625 48.23234375 43 49 C45.54027266 50.54958077 48.19663629 51.83250522 50.875 53.125 C51.91720703 53.64513672 51.91720703 53.64513672 52.98046875 54.17578125 C66.14826511 60.64808794 81.6192559 61.17769437 95.8125 57.3125 C97.89373965 56.59379854 99.95941912 55.82711545 102 55 C102.88429688 54.649375 103.76859375 54.29875 104.6796875 53.9375 C113.25171731 50.09210345 120.46937302 43.90462864 126.6875 36.9375 C129.14458397 34.38568508 130.68556725 33.52378757 134.25 33.375 C138 34 138 34 140 35 C141.75510064 38.51020128 142.0276937 41.28684478 141 45 C131.3370853 61.08117423 112.9425333 70.67653491 95.3203125 75.2890625 C90.54245434 76.31208625 85.87786263 76.82442748 81 77 C79.93458984 77.05994141 79.93458984 77.05994141 78.84765625 77.12109375 C61.7802908 77.66140141 46.54955592 73.27805584 33.171875 62.63671875 C31.00908762 60.82613633 31.00908762 60.82613633 28 60 C27.34 61.32 26.68 62.64 26 64 C23.75 64.3125 23.75 64.3125 21 64 C17.35282298 60.26700705 15.75662794 56.16610582 14.125 51.3125 C12.07555312 45.51646966 9.69126138 40.48252117 6.3828125 35.27734375 C0.12210828 24.96663596 -1.59534006 12.90680129 -1 1 C-0.67 0.67 -0.34 0.34 0 0 Z " fill="#3F4255" transform="translate(16,87)"/>
<path d="M0 0 C1.3775647 0.00737183 1.3775647 0.00737183 2.78295898 0.01489258 C20.01785612 0.30926106 37.54996783 5.93181361 50.8125 17.3125 C51.0625 20 51.0625 20 50.8125 22.3125 C47.11029308 21.76805781 44.89567727 20.88818382 41.9375 18.625 C25.62302411 7.38853978 5.63899067 4.57179624 -13.59765625 7.55859375 C-29.26392423 10.8486805 -41.05924081 19.18424081 -52.1875 30.3125 C-52.1875 31.3025 -52.1875 32.2925 -52.1875 33.3125 C-48.63979236 32.91831026 -47.10917625 31.35754568 -44.71875 28.8359375 C-32.3630335 16.54326037 -16.6621617 11.42543171 0.5 11.125 C16.28442485 11.29203095 30.3936631 15.4087065 42.55859375 25.8046875 C43.8125 27.3125 43.8125 27.3125 43.8125 30.3125 C42.1625 30.6425 40.5125 30.9725 38.8125 31.3125 C41.21133411 34.19578921 42.9547408 34.74822877 46.625 35.25 C54.11380601 36.60863679 58.11783259 40.08396404 62.4296875 46.16796875 C68.05512139 54.89215859 70.188253 62.93754205 69.8125 73.3125 C68.4925 73.3125 67.1725 73.3125 65.8125 73.3125 C65.59335938 72.28511719 65.37421875 71.25773437 65.1484375 70.19921875 C61.81734611 55.29555686 61.81734611 55.29555686 52.8125 43.3125 C47.87535842 41.49885615 43.18594574 40.9770296 37.94921875 40.65625 C35.8125 40.3125 35.8125 40.3125 33.8125 38.3125 C33.4375 35.375 33.4375 35.375 33.8125 32.3125 C35.8359375 30.62109375 35.8359375 30.62109375 37.8125 29.3125 C22.67763186 18.19066508 7.26516319 15.58985934 -11.0546875 17.7734375 C-23.89457124 20.20415046 -34.62610091 26.09984468 -44.05078125 35.08984375 C-47.17506859 38.03401696 -48.5555678 39.21771017 -52.9375 39.875 C-56.1875 39.3125 -56.1875 39.3125 -58.125 38.25 C-59.37531405 35.97001555 -59.96857073 34.02186228 -59.86328125 31.40625 C-58.26197905 26.44498999 -53.84149165 22.85487455 -50.1875 19.3125 C-49.29417969 18.44044922 -49.29417969 18.44044922 -48.3828125 17.55078125 C-35.33195829 5.65514619 -17.45388741 -0.11135629 0 0 Z " fill="#414557" transform="translate(90.1875,5.6875)"/>
<path d="M0 0 C4.55555556 0.55555556 4.55555556 0.55555556 6 2 C6.04063832 3.66617115 6.042721 5.33388095 6 7 C6.99 7.020625 7.98 7.04125 9 7.0625 C14.16253611 7.77747445 17.61443679 11.2408574 21 15 C22.85158647 18.1494831 23.38656783 20.3276056 23 24 C22.34 24.66 21.68 25.32 21 26 C17.5625 26 17.5625 26 14 25 C12.3125 22.125 12.3125 22.125 11 19 C9.07577433 16.77973962 7.7965493 16.09258783 4.8828125 15.75390625 C0.67243991 15.636568 -2.3258543 15.7763847 -6 18 C-7.85927536 20.47903381 -8 21.87898198 -8 25 C-6.62515442 29.12453674 -4.74255376 29.85897038 -1 32 C2.32200691 33.2564708 5.73951248 34.14376381 9.16601562 35.06640625 C14.64485262 36.63773462 18.22647651 38.69868834 21.78515625 43.31640625 C24.1719781 48.58890339 23.59119028 54.34715811 23 60 C20.77697347 64.95905918 17.78048051 67.46915738 13 70 C9.125 70.75 9.125 70.75 6 71 C6.04125 71.94875 6.0825 72.8975 6.125 73.875 C6 77 6 77 4 79 C-0.55555556 78.44444444 -0.55555556 78.44444444 -2 77 C-2.04080783 75.00041636 -2.04254356 72.99954746 -2 71 C-2.86625 71.0825 -3.7325 71.165 -4.625 71.25 C-10.14550419 70.84107376 -12.99903473 68.00096527 -16.8125 64.1875 C-19.27699637 60.59637672 -19.91828837 58.33071618 -20 54 C-19.34 53.01 -18.68 52.02 -18 51 C-15.20969911 50.57072294 -13.6889423 50.49654217 -11.375 52.1875 C-10 54 -10 54 -8.625 56.5 C-6.66193881 59.52009413 -5.31924609 60.59854054 -2 62 C2.12373048 62.61061323 5.1416838 62.40176503 8.9375 60.625 C11.09702406 59.16078274 11.09702406 59.16078274 12 57 C12.66664019 51.42937885 12.66664019 51.42937885 10.25 46.6875 C6.26963819 44.62077367 2.361853 43.8308411 -1.9921875 42.8359375 C-9.10340553 40.85957301 -13.70711451 36.85393476 -18 31 C-19.85714672 27.28570656 -19.44347927 23.05377529 -19 19 C-16.64182932 14.19295977 -13.40249849 11.0213225 -9 8 C-5.125 7.1875 -5.125 7.1875 -2 7 C-2.04125 6.21625 -2.0825 5.4325 -2.125 4.625 C-2 2 -2 2 0 0 Z " fill="#434358" transform="translate(91,46)"/>
<path d="M0 0 C0.24234375 0.92941406 0.4846875 1.85882812 0.734375 2.81640625 C2.49898124 9.32508848 4.20983772 15.33224964 8 21 C15.03734167 32.04848367 21 42.4738824 21 56 C21.556875 55.484375 22.11375 54.96875 22.6875 54.4375 C25 53 25 53 27.625 53.1875 C30 54 30 54 32 56 C32.45761913 59.615694 32.33035421 61.45487456 30.42578125 64.59765625 C28.29866365 67.07863815 26.1612478 69.54867924 24 72 C23.2575 73.010625 22.515 74.02125 21.75 75.0625 C18.02411869 77.68755274 15.12616202 78.72797861 10.5625 78.99609375 C5.22232277 77.50295209 2.05457615 74.23780077 -1.8125 70.375 C-2.89881714 69.28989136 -2.89881714 69.28989136 -4.00708008 68.18286133 C-7.80193882 64.11085774 -7.80193882 64.11085774 -9 62 C-8.58778167 57.58778167 -8.58778167 57.58778167 -7 56 C-1.67181467 55.53667954 -1.67181467 55.53667954 0.8125 57.25 C2 59 2 59 2.2890625 60.7890625 C3.30867188 63.95993563 5.27799944 65.72967077 7.5625 68.125 C12 72.79095164 12 72.79095164 12 75 C12.66 75 13.32 75 14 75 C14.24621094 74.26136719 14.49242187 73.52273437 14.74609375 72.76171875 C16.12749271 69.7191983 17.63826804 68.08714233 20.0625 65.8125 C22.92137806 63.19582919 22.92137806 63.19582919 25 60 C22.03 59.67 19.06 59.34 16 59 C15.76925781 57.98421875 15.53851563 56.9684375 15.30078125 55.921875 C12.72814725 44.91567411 10.07824348 34.65857247 2.875 25.6875 C-2.70300031 18.46767318 -4 10.02045847 -4 1 C-2 0 -2 0 0 0 Z " fill="#44485C" transform="translate(151,20)"/>
<path d="M0 0 C2.02050781 1.65820312 2.02050781 1.65820312 3.953125 3.78125 C4.654375 4.54050781 5.355625 5.29976563 6.078125 6.08203125 C6.79484375 6.87996094 7.5115625 7.67789063 8.25 8.5 C8.9821875 9.29792969 9.714375 10.09585938 10.46875 10.91796875 C11.81650822 12.38802355 13.15975143 13.86223899 14.49707031 15.34179688 C15.31439171 16.24355888 16.139422 17.139422 17 18 C17.04080783 19.99958364 17.04254356 22.00045254 17 24 C16.01 24.495 16.01 24.495 15 25 C10.74918907 21.38228857 6.58203272 17.68666083 2.5625 13.8125 C1.57443359 12.86310547 1.57443359 12.86310547 0.56640625 11.89453125 C-1.08938293 9.89189347 -1.60015515 8.53985952 -2 6 C-2.66 6 -3.32 6 -4 6 C-4.2371875 6.55429688 -4.474375 7.10859375 -4.71875 7.6796875 C-6.30452242 10.55148267 -8.28098092 12.71145652 -10.5 15.125 C-11.2940625 15.99382812 -12.088125 16.86265625 -12.90625 17.7578125 C-14.24743753 19.19408422 -15.61045683 20.61045683 -17 22 C-17.71408334 23.98356483 -18.38617742 25.98315437 -19 28 C-20.32 27.67 -21.64 27.34 -23 27 C-23.88671875 23.9765625 -23.88671875 23.9765625 -24 20 C-22.35266847 17.07457936 -20.13169433 14.78480699 -17.8125 12.375 C-16.63095134 11.09166034 -15.44994961 9.80781689 -14.26953125 8.5234375 C-13.70443848 7.92241211 -13.1393457 7.32138672 -12.55712891 6.70214844 C-11.20625971 5.22546922 -9.94352195 3.66908878 -8.69921875 2.1015625 C-5.86953011 -1.39814437 -4.1675422 -1.26966463 0 0 Z " fill="#3E4256" transform="translate(26,64)"/>
<path d="M0 0 C-3.45403729 10.45496234 -14.71302276 17.93949905 -24 23 C-28.59137236 24.9613145 -33.22878515 26.5391836 -38 28 C-38.69351563 28.2578125 -39.38703125 28.515625 -40.1015625 28.78125 C-43.41370638 29.89016161 -46.57050377 30.07820439 -50.0390625 29.890625 C-50.77012207 29.85146973 -51.50118164 29.81231445 -52.25439453 29.77197266 C-55.5076888 29.55904776 -58.75280222 29.29161728 -62 29 C-61.505 27.515 -61.505 27.515 -61 26 C-59.28515625 25.33984375 -59.28515625 25.33984375 -57.0625 24.9375 C-56.24136719 24.77765625 -55.42023438 24.6178125 -54.57421875 24.453125 C-52.95255693 24.16767315 -51.33023893 23.88590101 -49.70703125 23.609375 C-32.93888224 20.57594101 -19.81352876 14.55608967 -7.99609375 2.0390625 C-5.03244339 -0.98838464 -3.93883419 -1.18165026 0 0 Z " fill="#53C5CD" transform="translate(152,128)"/>
<path d="M0 0 C0.24234375 0.92941406 0.4846875 1.85882812 0.734375 2.81640625 C2.49898124 9.32508848 4.20983772 15.33224964 8 21 C15.03734167 32.04848367 21 42.4738824 21 56 C22.32 56.33 23.64 56.66 25 57 C24.67 57.66 24.34 58.32 24 59 C21.36 59 18.72 59 16 59 C15.76925781 57.98421875 15.53851563 56.9684375 15.30078125 55.921875 C12.72814725 44.91567411 10.07824348 34.65857247 2.875 25.6875 C-2.70300031 18.46767318 -4 10.02045847 -4 1 C-2 0 -2 0 0 0 Z " fill="#3D4055" transform="translate(151,20)"/>
<path d="M0 0 C0.66 0 1.32 0 2 0 C2.95840996 1.42602977 3.9114719 2.8560673 4.83154297 4.30712891 C6.74357559 7.07729903 9.15053248 9.36016292 11.5625 11.6875 C12.04396484 12.15994141 12.52542969 12.63238281 13.02148438 13.11914062 C14.3441549 14.41634019 15.67188121 15.70837913 17 17 C17.99 17.99 18.98 18.98 20 20 C16.7 19.67 13.4 19.34 10 19 C10 21.31 10 23.62 10 26 C9.67 26 9.34 26 9 26 C9 23.03 9 20.06 9 17 C7.68 17 6.36 17 5 17 C4.67 19.31 4.34 21.62 4 24 C2.68 24 1.36 24 0 24 C-0.33 25.32 -0.66 26.64 -1 28 C-1.10957031 27.36191406 -1.21914063 26.72382812 -1.33203125 26.06640625 C-1.49058594 25.24011719 -1.64914063 24.41382812 -1.8125 23.5625 C-1.96332031 22.73878906 -2.11414062 21.91507813 -2.26953125 21.06640625 C-2.51058594 20.38449219 -2.75164063 19.70257813 -3 19 C-3.99 18.67 -4.98 18.34 -6 18 C-6.66 18.33 -7.32 18.66 -8 19 C-9.99960012 19.039992 -12.00047242 19.04346799 -14 19 C-13.43798377 15.27251 -11.98286433 13.70974885 -9.25 11.1875 C-6.54286678 8.60165411 -4.22530576 6.10015191 -2.125 3 C-1.42375 2.01 -0.7225 1.02 0 0 Z " fill="#61D3D8" transform="translate(22,70)"/>
<path d="M0 0 C1.25390625 1.5078125 1.25390625 1.5078125 1.25390625 4.5078125 C-1.4548871 5.86220918 -3.75542643 5.57282701 -6.74609375 5.5078125 C-6.08609375 4.8478125 -5.42609375 4.1878125 -4.74609375 3.5078125 C-17.81415886 -6.09523534 -29.89810178 -8.44296274 -45.74609375 -9.4921875 C-45.74609375 -9.8221875 -45.74609375 -10.1521875 -45.74609375 -10.4921875 C-43.76609375 -10.8221875 -41.78609375 -11.1521875 -39.74609375 -11.4921875 C-39.74609375 -11.8221875 -39.74609375 -12.1521875 -39.74609375 -12.4921875 C-24.57969587 -14.77416866 -11.64741078 -9.9537157 0 0 Z " fill="#474A5A" transform="translate(132.74609375,31.4921875)"/>
<path d="M0 0 C1.32 0 2.64 0 4 0 C4.08636719 0.85980469 4.17273438 1.71960938 4.26171875 2.60546875 C5.63185828 14.13223897 8.37816456 24.93619569 16 34 C16.66 34.33 17.32 34.66 18 35 C18 35.99 18 36.98 18 38 C19.485 38.495 19.485 38.495 21 39 C17.81859603 39.55674569 15.72773966 39.45588289 12.9609375 37.72265625 C8.14379038 33.74445048 5.1951428 29.82190048 3 24 C2.70222656 23.26136719 2.40445312 22.52273437 2.09765625 21.76171875 C-0.45882211 14.56352393 -0.29427553 7.56397103 0 0 Z " fill="#44495C" transform="translate(27,87)"/>
<path d="M0 0 C0.57105469 0.37382812 1.14210937 0.74765625 1.73046875 1.1328125 C0.73094898 3.75377545 0.01724497 4.95012543 -2.37890625 6.4765625 C-11.49962738 10.47025104 -21.16992895 14.54535299 -31.26953125 14.1328125 C-31.26953125 12.8128125 -31.26953125 11.4928125 -31.26953125 10.1328125 C-35.88953125 10.1328125 -40.50953125 10.1328125 -45.26953125 10.1328125 C-45.26953125 9.8028125 -45.26953125 9.4728125 -45.26953125 9.1328125 C-44.14417969 9.10703125 -43.01882812 9.08125 -41.859375 9.0546875 C-28.44780288 8.61390402 -16.05299113 6.98291778 -4.3203125 -0.109375 C-2.26953125 -0.8671875 -2.26953125 -0.8671875 0 0 Z " fill="#424A5A" transform="translate(133.26953125,148.8671875)"/>
<path d="M0 0 C3.125 0.25 3.125 0.25 4.9375 1.5 C6.125 3.25 6.125 3.25 6.4453125 5.078125 C7.62784649 8.85679684 10.69602329 11.24556697 13.41015625 14.03125 C15.125 16.25 15.125 16.25 15.125 20.25 C12.04836527 20.75724178 9.93788491 20.79910539 7.30126953 19.01806641 C5.3401106 17.27315498 3.5093019 15.4522655 1.6875 13.5625 C1.03845703 12.93666016 0.38941406 12.31082031 -0.27929688 11.66601562 C-1.99657195 9.92688764 -3.52754347 8.2894093 -4.875 6.25 C-4.83453934 1.96695014 -4.3228421 0.37589931 0 0 Z " fill="#3F4659" transform="translate(146.875,75.75)"/>
<path d="M0 0 C4 0 4 0 5.44921875 1.44140625 C5.96097656 1.95574219 6.47273437 2.47007813 7 3 C9.29632816 3.64450741 9.29632816 3.64450741 11.8125 3.9375 C16.50657773 4.74160995 19.28309882 6.06560433 23 9 C22.01 10.485 22.01 10.485 21 12 C21.33 12.66 21.66 13.32 22 14 C21.2265625 13.566875 21.2265625 13.566875 20.4375 13.125 C14.79445745 10.52051882 9.27023317 9.71946298 3.13671875 9.34375 C1 9 1 9 -1 7 C-1.1875 3.9375 -1.1875 3.9375 -1 1 C-0.67 0.67 -0.34 0.34 0 0 Z " fill="#3F3E50" transform="translate(125,37)"/>
<path d="M0 0 C7.33773235 1.10331845 15.92272249 5.57256542 21 11 C21.3125 13.75 21.3125 13.75 21 16 C17.23375845 15.44788082 14.87947814 14.48262199 11.8125 12.25 C7.1064806 8.97004709 2.17994782 6.44398373 -3 4 C-2.505 3.525625 -2.01 3.05125 -1.5 2.5625 C0.11542197 1.24076302 0.11542197 1.24076302 0 0 Z " fill="#3B3C53" transform="translate(120,12)"/>
<path d="M0 0 C1.81569627 0.78430825 3.62936125 1.57342242 5.4375 2.375 C5.4375 3.035 5.4375 3.695 5.4375 4.375 C4.4475 4.375 3.4575 4.375 2.4375 4.375 C2.4375 5.365 2.4375 6.355 2.4375 7.375 C-0.54818945 6.38715319 -3.52691044 5.38757498 -6.4921875 4.33984375 C-12.23198476 2.33776593 -17.49635636 0.84162643 -23.5625 0.375 C-14.96206126 -6.38248758 -9.68734466 -4.01447223 0 0 Z " fill="#48C6C9" transform="translate(121.5625,17.625)"/>
<path d="M0 0 C3.42216253 1.14072084 4.51543759 2.44236223 7 5 C9.60284805 7.15845936 12.18513404 9.12342269 15 11 C15 11.66 15 12.32 15 13 C11.98817683 13.91525368 10.54717015 14.25813343 7.6484375 12.890625 C6.89820313 12.34921875 6.14796875 11.8078125 5.375 11.25 C4.61960937 10.71890625 3.86421875 10.1878125 3.0859375 9.640625 C1.22536263 8.17725151 -0.47007836 6.80629458 -2 5 C-1.74853421 2.86254078 -1.54074221 1.54074221 0 0 Z " fill="#424456" transform="translate(52,131)"/>
<path d="M0 0 C1.6065676 0.25620684 3.2102483 0.53055871 4.8125 0.8125 C6.15248047 1.03873047 6.15248047 1.03873047 7.51953125 1.26953125 C10.21278362 2.06266226 11.35992636 2.73935795 13 5 C12.6875 7.6875 12.6875 7.6875 12 10 C10.125 9.6875 10.125 9.6875 8 9 C7.34 8.01 6.68 7.02 6 6 C2.93443402 5.26656572 2.93443402 5.26656572 0 5 C0 3.35 0 1.7 0 0 Z " fill="#82A0AD" transform="translate(45,122)"/>
<path d="M0 0 C-0.33 0.99 -0.66 1.98 -1 3 C-5.61965088 3.95946595 -9.68129125 3.96102244 -14.375 3.5625 C-15.62023437 3.46066406 -16.86546875 3.35882812 -18.1484375 3.25390625 C-19.55996094 3.12822266 -19.55996094 3.12822266 -21 3 C-21 2.67 -21 2.34 -21 2 C-19.02 1.67 -17.04 1.34 -15 1 C-15 0.67 -15 0.34 -15 0 C-9.76528314 -0.75612577 -5.22745859 -1.2063366 0 0 Z " fill="#4C4D60" transform="translate(108,19)"/>
<path d="M0 0 C3 2 3 2 4 5 C2.71475739 5.86380259 1.42157581 6.71580369 0.125 7.5625 C-0.59429687 8.03816406 -1.31359375 8.51382813 -2.0546875 9.00390625 C-2.69664062 9.33261719 -3.33859375 9.66132813 -4 10 C-4.66 9.67 -5.32 9.34 -6 9 C-6 7.68 -6 6.36 -6 5 C-3.5625 2.8125 -3.5625 2.8125 -1 1 C-0.67 0.67 -0.34 0.34 0 0 Z " fill="#494D60" transform="translate(132,134)"/>
<path d="M0 0 C1.32 0 2.64 0 4 0 C4.33 2.64 4.66 5.28 5 8 C4.01 8.33 3.02 8.66 2 9 C0.5 7.8125 0.5 7.8125 -1 6 C-1.25 3.375 -1.25 3.375 -1 1 C-0.67 0.67 -0.34 0.34 0 0 Z " fill="#586476" transform="translate(3,83)"/>
<path d="M0 0 C3.79588866 0.54226981 5.47211993 2.20127563 8 5 C4.7 4.67 1.4 4.34 -2 4 C-2 6.31 -2 8.62 -2 11 C-2.33 11 -2.66 11 -3 11 C-3 8.03 -3 5.06 -3 2 C-2.01 2 -1.02 2 0 2 C0 1.34 0 0.68 0 0 Z " fill="#9BD0D2" transform="translate(34,85)"/>
<path d="M0 0 C1.32 0.66 2.64 1.32 4 2 C3.45773019 5.79588866 1.79872437 7.47211993 -1 10 C-1.02689216 8.52093108 -1.04634621 7.04172517 -1.0625 5.5625 C-1.07410156 4.73878906 -1.08570313 3.91507812 -1.09765625 3.06640625 C-1 1 -1 1 0 0 Z " fill="#45475D" transform="translate(16,87)"/>
<path d="M0 0 C0 0.66 0 1.32 0 2 C0.99 2.33 1.98 2.66 3 3 C3 3.66 3 4.32 3 5 C-2.625 5.25 -2.625 5.25 -6 3 C-6 2.34 -6 1.68 -6 1 C-3 0 -3 0 0 0 Z " fill="#44BCC2" transform="translate(135,36)"/>
<path d="M0 0 C-0.99 0.33 -1.98 0.66 -3 1 C-3 2.65 -3 4.3 -3 6 C-3.33 5.34 -3.66 4.68 -4 4 C-5.98 4.99 -5.98 4.99 -8 6 C-8.33 4.35 -8.66 2.7 -9 1 C-5.57367167 -0.61798838 -3.61944899 -1.34053666 0 0 Z " fill="#78CDD4" transform="translate(150,20)"/>
<path d="M0 0 C0.33 0.66 0.66 1.32 1 2 C1.66 2 2.32 2 3 2 C3.33 1.34 3.66 0.68 4 0 C4 0.66 4 1.32 4 2 C5.32 2.33 6.64 2.66 8 3 C8 3.33 8 3.66 8 4 C2.06 4.495 2.06 4.495 -4 5 C-4.33 4.34 -4.66 3.68 -5 3 C-3.35 3 -1.7 3 0 3 C0 2.01 0 1.02 0 0 Z " fill="#59697A" transform="translate(162,93)"/>
<path d="M0 0 C1 2 1 2 0.8125 3.9375 C-0.22687271 6.57590764 -1.6538835 7.48637645 -4 9 C-4.625 6.125 -4.625 6.125 -5 3 C-3 1 -3 1 0 0 Z " fill="#46475D" transform="translate(169,62)"/>
<path d="M0 0 C2.97 0.495 2.97 0.495 6 1 C6.33 2.32 6.66 3.64 7 5 C4.69 5 2.38 5 0 5 C0 3.35 0 1.7 0 0 Z " fill="#677B8C" transform="translate(45,122)"/>
<path d="M0 0 C2.01822917 0.06510417 4.03645833 0.13020833 6.0546875 0.1953125 C4.5696875 2.1753125 4.5696875 2.1753125 3.0546875 4.1953125 C0.7446875 3.5353125 -1.5653125 2.8753125 -3.9453125 2.1953125 C-1.9453125 0.1953125 -1.9453125 0.1953125 0 0 Z " fill="#C0D0DA" transform="translate(162.9453125,96.8046875)"/>
<path d="M0 0 C0.99 0.33 1.98 0.66 3 1 C1.84826645 3.46800047 0.95216435 5.04783565 -1 7 C-1.99 6.67 -2.98 6.34 -4 6 C-1.125 1.125 -1.125 1.125 0 0 Z " fill="#3C3C4E" transform="translate(43,37)"/>
<path d="M0 0 C0.6875 1.625 0.6875 1.625 1 4 C-0.4375 7.25 -0.4375 7.25 -2 10 C-2.98120464 6.94736336 -2.98120464 5.05263664 -2 2 C-1.34 2 -0.68 2 0 2 C0 1.34 0 0.68 0 0 Z " fill="#515666" transform="translate(31,96)"/>
<path d="M0 0 C2.0625 0.4375 2.0625 0.4375 4 1 C1.03 3.475 1.03 3.475 -2 6 C-1.125 1.125 -1.125 1.125 0 0 Z " fill="#4E4F64" transform="translate(144,76)"/>
<path d="M0 0 C1.32 0 2.64 0 4 0 C4 1.98 4 3.96 4 6 C3.34 6 2.68 6 2 6 C1.34 4.02 0.68 2.04 0 0 Z " fill="#4F4D61" transform="translate(27,87)"/>
<path d="M0 0 C1.65 0.33 3.3 0.66 5 1 C4.67 2.32 4.34 3.64 4 5 C2.35 4.01 0.7 3.02 -1 2 C-0.67 1.34 -0.34 0.68 0 0 Z " fill="#637387" transform="translate(38,84)"/>
</svg>
