<svg xmlns="http://www.w3.org/2000/svg" viewBox="0 0 800 800">
  <circle cx="400" cy="400" r="350" fill="#f5f3ff"/>
  <path d="M250 150 Q 200 150 200 200 L 200 600 Q 200 650 250 650 L 550 650 Q 600 650 600 600 L 600 200 Q 600 150 550 150 Z" fill="#c4b5fd" stroke="#5b21b6" stroke-width="8"/>
  <rect x="300" y="250" width="200" height="150" rx="15" fill="white" stroke="#5b21b6" stroke-width="6"/>
  <circle cx="400" cy="325" r="40" fill="none" stroke="#00a09d" stroke-width="6"/>
  <path d="M 380 305 L 390 315 L 420 285" fill="none" stroke="#00a09d" stroke-width="6" stroke-linecap="round"/>
  <text x="400" y="385" font-family="Arial, sans-serif" font-size="48" fill="#5b21b6" text-anchor="middle" font-weight="bold">$</text>
  <circle cx="250" cy="200" r="50" fill="#fbbf24" stroke="#5b21b6" stroke-width="4"/>
  <path d="M 240 190 L 240 210 M 260 190 L 260 210" stroke="#5b21b6" stroke-width="4" stroke-linecap="round"/>
  <rect x="480" y="450" width="120" height="80" rx="8" fill="white" stroke="#5b21b6" stroke-width="4"/>
  <circle cx="580" cy="520" r="25" fill="#00a09d"/>
  <path d="M 570 520 L 575 525 L 590 510" fill="none" stroke="white" stroke-width="4" stroke-linecap="round"/>
</svg>
